<?xml version="1.0" encoding="utf-8"?>
<!-- Generator: Adobe Illustrator 22.0.0, SVG Export Plug-In . SVG Version: 6.00 Build 0)  -->
<svg version="1.1" id="Layer_1" xmlns="http://www.w3.org/2000/svg" xmlns:xlink="http://www.w3.org/1999/xlink" x="0px" y="0px"
	 viewBox="0 0 432 144" style="enable-background:new 0 0 432 144;" xml:space="preserve">
<style type="text/css">
	.st0{fill:#00946E;}
	.st1{fill:#00A5B5;}
	.st2{fill:#0047BA;}
</style>
<g>
	<g>
		<rect x="42.8" y="52.4" class="st0" width="6" height="39.1"/>
		<rect x="51.5" y="43.9" class="st1" width="6" height="20.2"/>
		<rect x="60.3" y="61" class="st0" width="6" height="12.8"/>
		<rect x="69" y="47.7" class="st2" width="6" height="29.8"/>
		<rect x="34" y="60.5" class="st2" width="6" height="26.6"/>
		<rect x="25.3" y="56" class="st1" width="6" height="17.1"/>
	</g>
	<g>
		<path class="st2" d="M100.3,44.9c1.6,0,2.9,0.1,4,0.3c1.1,0.2,1.9,0.4,2.4,0.6l-1,4.6c-0.5-0.2-1.1-0.5-2-0.7
			c-0.8-0.2-1.9-0.3-3.1-0.3c-2.5,0-4.2,0.7-5.2,2c-1,1.4-1.5,3.2-1.5,5.5v2.6h11.5v4.5H94v25.4h-5.3V56.9c0-3.8,0.9-6.8,2.8-8.9
			C93.3,45.9,96.3,44.9,100.3,44.9z"/>
		<path class="st2" d="M136,74.5c0,2.4-0.3,4.5-1,6.4c-0.7,1.9-1.7,3.6-2.9,4.9c-1.2,1.4-2.7,2.4-4.5,3.2s-3.6,1.1-5.6,1.1
			c-2,0-3.9-0.4-5.6-1.1c-1.7-0.7-3.2-1.8-4.5-3.2c-1.2-1.4-2.2-3-2.9-4.9c-0.7-1.9-1-4.1-1-6.4c0-2.3,0.3-4.5,1-6.4
			c0.7-1.9,1.7-3.6,2.9-5c1.2-1.4,2.7-2.4,4.5-3.2c1.7-0.7,3.6-1.1,5.6-1.1c2,0,3.9,0.4,5.6,1.1c1.7,0.7,3.2,1.8,4.5,3.2
			c1.2,1.4,2.2,3,2.9,5C135.7,70,136,72.2,136,74.5z M130.4,74.5c0-3.4-0.8-6-2.3-8c-1.5-2-3.6-3-6.2-3c-2.6,0-4.7,1-6.2,3
			c-1.5,2-2.3,4.6-2.3,8c0,3.4,0.8,6,2.3,8c1.5,2,3.6,3,6.2,3c2.6,0,4.7-1,6.2-3C129.7,80.6,130.4,77.9,130.4,74.5z"/>
		<path class="st2" d="M153.4,59c0.5,0,1,0,1.6,0.1c0.6,0.1,1.2,0.1,1.8,0.2s1.1,0.2,1.6,0.3c0.5,0.1,0.8,0.2,1.1,0.3l-0.9,4.7
			c-0.4-0.2-1.1-0.3-2.1-0.5c-1-0.2-2.2-0.3-3.8-0.3c-1,0-2,0.1-3,0.3c-1,0.2-1.6,0.4-1.9,0.4v25.1h-5.3V60.8
			c1.3-0.5,2.8-0.9,4.7-1.3C149,59.2,151.1,59,153.4,59z"/>
		<path class="st2" d="M162.3,74.6c0-2.6,0.4-4.9,1.1-6.9c0.8-2,1.8-3.6,3-4.9c1.3-1.3,2.7-2.3,4.4-2.9c1.6-0.6,3.3-1,5.1-1
			c4,0,7.1,1.3,9.2,3.8c2.1,2.5,3.2,6.3,3.2,11.5c0,0.2,0,0.5,0,0.9c0,0.4,0,0.7-0.1,1h-20.4c0.2,3.1,1.1,5.5,2.7,7.1s4,2.4,7.4,2.4
			c1.9,0,3.5-0.2,4.7-0.5c1.3-0.3,2.2-0.6,2.9-0.9l0.7,4.5c-0.7,0.3-1.8,0.7-3.4,1.1c-1.6,0.4-3.5,0.6-5.5,0.6
			c-2.6,0-4.9-0.4-6.7-1.2c-1.9-0.8-3.5-1.9-4.7-3.2c-1.2-1.4-2.1-3-2.7-4.9C162.6,78.9,162.3,76.8,162.3,74.6z M182.8,71.6
			c0-2.4-0.6-4.4-1.8-5.9c-1.2-1.6-3-2.3-5.1-2.3c-1.2,0-2.3,0.2-3.2,0.7c-0.9,0.5-1.7,1.1-2.4,1.9c-0.6,0.8-1.2,1.6-1.5,2.6
			c-0.4,1-0.6,2-0.7,3H182.8z"/>
		<path class="st2" d="M208.5,90.1c-2.4,0-4.5-0.4-6.3-1.1c-1.8-0.8-3.3-1.8-4.6-3.2c-1.2-1.4-2.2-3-2.8-4.9c-0.6-1.9-0.9-4-0.9-6.3
			c0-2.3,0.3-4.4,1-6.3c0.7-1.9,1.6-3.6,2.8-5c1.2-1.4,2.7-2.5,4.5-3.3c1.8-0.8,3.8-1.2,5.9-1.2c1.3,0,2.7,0.1,4,0.3
			s2.6,0.6,3.8,1.1l-1.2,4.5c-0.8-0.4-1.7-0.7-2.8-0.9c-1.1-0.2-2.2-0.3-3.4-0.3c-3,0-5.3,0.9-6.9,2.8c-1.6,1.9-2.4,4.6-2.4,8.2
			c0,1.6,0.2,3.1,0.5,4.4c0.4,1.3,0.9,2.5,1.7,3.4c0.8,1,1.8,1.7,3,2.2c1.2,0.5,2.7,0.8,4.5,0.8c1.4,0,2.7-0.1,3.8-0.4
			c1.1-0.3,2-0.6,2.7-0.9l0.7,4.5c-0.3,0.2-0.7,0.4-1.3,0.5c-0.6,0.2-1.2,0.3-2,0.5c-0.7,0.1-1.5,0.2-2.3,0.3
			C210.1,90.1,209.3,90.1,208.5,90.1z"/>
		<path class="st2" d="M231.3,58.8c2.1,0,4,0.3,5.4,0.8c1.5,0.6,2.7,1.3,3.6,2.4c0.9,1,1.5,2.2,1.9,3.6c0.4,1.4,0.6,2.9,0.6,4.6
			v18.7c-0.5,0.1-1.1,0.2-1.9,0.3s-1.8,0.3-2.8,0.4c-1,0.1-2.2,0.2-3.4,0.3c-1.2,0.1-2.4,0.1-3.6,0.1c-1.7,0-3.2-0.2-4.7-0.5
			c-1.4-0.3-2.6-0.9-3.7-1.6c-1-0.7-1.8-1.7-2.4-3c-0.6-1.2-0.9-2.7-0.9-4.4c0-1.6,0.3-3.1,1-4.3c0.7-1.2,1.6-2.1,2.7-2.9
			c1.1-0.7,2.5-1.3,4-1.6c1.5-0.3,3.1-0.5,4.8-0.5c0.5,0,1.1,0,1.7,0.1c0.6,0.1,1.1,0.1,1.6,0.2c0.5,0.1,1,0.2,1.3,0.3
			c0.4,0.1,0.6,0.1,0.8,0.2v-1.5c0-0.9-0.1-1.8-0.3-2.6c-0.2-0.9-0.5-1.6-1-2.3c-0.5-0.7-1.2-1.2-2-1.6c-0.9-0.4-2-0.6-3.4-0.6
			c-1.8,0-3.3,0.1-4.6,0.4c-1.3,0.2-2.3,0.5-3,0.8l-0.6-4.4c0.7-0.3,1.8-0.6,3.4-0.9C227.7,59,229.4,58.8,231.3,58.8z M231.8,85.6
			c1.3,0,2.4,0,3.4-0.1s1.8-0.2,2.4-0.3v-8.9c-0.4-0.2-1-0.4-1.9-0.5c-0.9-0.1-1.9-0.2-3.1-0.2c-0.8,0-1.7,0.1-2.6,0.2
			c-0.9,0.1-1.7,0.4-2.5,0.7c-0.7,0.4-1.4,0.9-1.9,1.5c-0.5,0.6-0.7,1.5-0.7,2.5c0,1.9,0.6,3.2,1.8,4
			C228,85.2,229.7,85.6,231.8,85.6z"/>
		<path class="st2" d="M258,85.6c2.2,0,3.8-0.3,4.9-0.9c1.1-0.6,1.6-1.5,1.6-2.8c0-1.3-0.5-2.3-1.6-3.1c-1-0.8-2.7-1.6-5.1-2.6
			c-1.1-0.5-2.2-0.9-3.3-1.4c-1.1-0.5-2-1-2.7-1.7c-0.8-0.6-1.4-1.4-1.8-2.4c-0.5-0.9-0.7-2-0.7-3.4c0-2.6,1-4.7,2.9-6.3
			c2-1.6,4.6-2.3,8-2.3c0.8,0,1.7,0,2.5,0.1c0.8,0.1,1.6,0.2,2.4,0.3c0.7,0.1,1.4,0.3,1.9,0.4c0.6,0.2,1,0.3,1.3,0.4l-1,4.6
			c-0.6-0.3-1.5-0.6-2.7-0.9c-1.2-0.3-2.7-0.5-4.4-0.5c-1.5,0-2.8,0.3-3.9,0.9c-1.1,0.6-1.7,1.5-1.7,2.8c0,0.7,0.1,1.2,0.4,1.7
			c0.2,0.5,0.6,0.9,1.1,1.3s1.2,0.8,1.9,1.1c0.8,0.3,1.7,0.7,2.8,1.1c1.4,0.5,2.7,1.1,3.8,1.6c1.1,0.5,2.1,1.1,2.8,1.8
			c0.8,0.7,1.4,1.5,1.8,2.5c0.4,1,0.6,2.2,0.6,3.6c0,2.8-1,4.8-3.1,6.3s-5,2.1-8.8,2.1c-2.6,0-4.7-0.2-6.2-0.7c-1.5-0.4-2.5-0.8-3-1
			l1-4.6c0.6,0.2,1.6,0.6,2.9,1C254,85.4,255.8,85.6,258,85.6z"/>
		<path class="st2" d="M281.1,59.6h11.3v4.5h-11.3v13.8c0,1.5,0.1,2.7,0.3,3.7c0.2,1,0.6,1.7,1,2.3c0.5,0.6,1,0.9,1.7,1.2
			c0.7,0.2,1.5,0.3,2.4,0.3c1.6,0,2.9-0.2,3.9-0.5c1-0.4,1.7-0.6,2-0.8l1,4.4c-0.5,0.3-1.5,0.6-2.8,1c-1.3,0.4-2.9,0.6-4.6,0.6
			c-2,0-3.7-0.3-5-0.8c-1.3-0.5-2.4-1.3-3.2-2.3c-0.8-1-1.4-2.3-1.7-3.8s-0.5-3.3-0.5-5.3V51.3l5.3-0.9V59.6z"/>
		<path class="st1" d="M317.2,100.1h-3.7V60.8c1.1-0.4,2.5-0.7,4.3-1.1c1.7-0.3,3.9-0.5,6.5-0.5c2.2,0,4.2,0.4,5.9,1.1
			c1.8,0.7,3.3,1.7,4.6,3.1c1.3,1.3,2.3,3,3,4.9c0.7,1.9,1.1,4.1,1.1,6.5c0,2.3-0.3,4.3-0.9,6.2c-0.6,1.9-1.5,3.5-2.6,4.9
			c-1.1,1.4-2.6,2.4-4.2,3.2c-1.7,0.8-3.6,1.1-5.7,1.1c-2,0-3.6-0.3-5.1-0.8c-1.4-0.6-2.5-1.1-3.1-1.6V100.1z M317.2,84.1
			c0.3,0.3,0.8,0.6,1.3,0.9c0.5,0.3,1.1,0.6,1.8,0.9c0.7,0.3,1.4,0.5,2.2,0.7c0.8,0.2,1.6,0.3,2.5,0.3c1.8,0,3.4-0.3,4.6-0.9
			s2.2-1.5,3-2.6c0.8-1.1,1.3-2.4,1.7-3.8c0.3-1.5,0.5-3,0.5-4.7c0-3.9-1-6.9-2.9-9c-2-2.1-4.5-3.1-7.8-3.1c-1.8,0-3.3,0.1-4.5,0.3
			s-2,0.4-2.6,0.5V84.1z"/>
		<path class="st1" d="M356.5,59.2c1.2,0,2.4,0.1,3.5,0.3c1.1,0.2,1.8,0.4,2.3,0.6l-0.7,3.2c-0.3-0.2-0.9-0.3-1.9-0.5
			c-0.9-0.2-2.2-0.3-3.7-0.3c-1.6,0-2.9,0.1-3.9,0.3c-1,0.2-1.6,0.4-1.9,0.6v26h-3.7V61.1c1-0.4,2.3-0.9,4-1.3
			C352.1,59.4,354.1,59.2,356.5,59.2z"/>
		<path class="st1" d="M392.7,74.6c0,2.3-0.3,4.5-1,6.4c-0.7,1.9-1.6,3.5-2.8,4.9c-1.2,1.3-2.6,2.4-4.3,3.1
			c-1.6,0.7-3.5,1.1-5.5,1.1c-2,0-3.8-0.4-5.5-1.1c-1.6-0.7-3.1-1.8-4.3-3.1c-1.2-1.3-2.1-3-2.8-4.9c-0.7-1.9-1-4-1-6.4
			c0-2.3,0.3-4.5,1-6.4c0.7-1.9,1.6-3.6,2.8-4.9c1.2-1.4,2.6-2.4,4.3-3.2c1.6-0.7,3.5-1.1,5.5-1.1c2,0,3.8,0.4,5.5,1.1
			c1.6,0.7,3.1,1.8,4.3,3.2c1.2,1.4,2.1,3,2.8,4.9C392.3,70.2,392.7,72.3,392.7,74.6z M388.7,74.6c0-3.7-0.9-6.7-2.6-8.9
			c-1.7-2.2-4.1-3.3-7-3.3c-2.9,0-5.3,1.1-7,3.3c-1.7,2.2-2.6,5.2-2.6,8.9c0,3.7,0.9,6.7,2.6,8.8c1.7,2.2,4.1,3.3,7,3.3
			c2.9,0,5.3-1.1,7-3.3C387.8,81.3,388.7,78.3,388.7,74.6z"/>
	</g>
	<g>
		<path class="st1" d="M406.7,57.2c0,0.8-0.1,1.5-0.4,2.1c-0.3,0.6-0.6,1.1-1,1.5s-0.9,0.7-1.5,1c-0.6,0.2-1.1,0.3-1.7,0.3
			c-0.6,0-1.2-0.1-1.8-0.3c-0.6-0.2-1-0.5-1.5-1c-0.4-0.4-0.8-0.9-1-1.5c-0.3-0.6-0.4-1.3-0.4-2.1c0-0.8,0.1-1.5,0.4-2.1
			c0.3-0.6,0.6-1.1,1-1.5c0.4-0.4,0.9-0.7,1.5-1c0.6-0.2,1.1-0.3,1.8-0.3c0.6,0,1.2,0.1,1.7,0.3c0.6,0.2,1,0.5,1.5,1
			c0.4,0.4,0.8,0.9,1,1.5C406.6,55.8,406.7,56.4,406.7,57.2z M405.9,57.2c0-0.6-0.1-1.2-0.3-1.7c-0.2-0.5-0.5-1-0.8-1.3
			c-0.3-0.4-0.7-0.7-1.2-0.9c-0.5-0.2-1-0.3-1.5-0.3s-1.1,0.1-1.5,0.3c-0.5,0.2-0.9,0.5-1.2,0.9c-0.3,0.4-0.6,0.8-0.8,1.3
			s-0.3,1.1-0.3,1.7c0,0.6,0.1,1.2,0.3,1.7s0.5,1,0.8,1.3c0.3,0.4,0.7,0.7,1.2,0.9c0.5,0.2,1,0.3,1.5,0.3s1.1-0.1,1.5-0.3
			c0.5-0.2,0.9-0.5,1.2-0.9c0.3-0.4,0.6-0.8,0.8-1.3C405.8,58.4,405.9,57.8,405.9,57.2z M403.6,59.9c-0.2-0.4-0.5-0.8-0.7-1.2
			c-0.3-0.4-0.5-0.7-0.7-0.9c-0.1,0-0.1,0-0.2,0s-0.1,0-0.1,0H401v2.1h-0.7v-5.3c0.2,0,0.4-0.1,0.7-0.1s0.5,0,0.7,0
			c0.8,0,1.4,0.1,1.8,0.4c0.4,0.3,0.6,0.7,0.6,1.3c0,0.3-0.1,0.6-0.3,0.9c-0.2,0.3-0.5,0.5-0.8,0.6c0.1,0.1,0.2,0.2,0.3,0.4
			c0.1,0.2,0.3,0.4,0.4,0.6c0.1,0.2,0.3,0.4,0.4,0.7c0.1,0.2,0.3,0.5,0.4,0.7H403.6z M401,57.2h0.7c0.2,0,0.4,0,0.6,0
			s0.4-0.1,0.5-0.2c0.1-0.1,0.2-0.2,0.3-0.3s0.1-0.3,0.1-0.5c0-0.2,0-0.4-0.1-0.5c-0.1-0.1-0.2-0.2-0.3-0.3
			c-0.1-0.1-0.3-0.1-0.5-0.2s-0.4-0.1-0.6-0.1c-0.1,0-0.3,0-0.4,0c-0.1,0-0.2,0-0.3,0V57.2z"/>
	</g>
</g>
</svg>
